HIERARCHY
ROOT root
{
	OFFSET 0.000000 0.000000 0.000000
	CHANNELS 6 Xposition Yposition Zposition Zrotation Yrotation Xrotation
	JOINT lhip
	{
		OFFSET 0.058581 -0.082280 -0.017664
		CHANNELS 3 Zrotation Yrotation Xrotation
		JOINT lknee
		{
			OFFSET 0.043451 -0.386469 0.008037
			CHANNELS 3 Zrotation Yrotation Xrotation
			JOINT lankle
			{
				OFFSET -0.014790 -0.426874 -0.037428
				CHANNELS 3 Zrotation Yrotation Xrotation
				JOINT ltoe
				{
					OFFSET 0.041054 -0.060286 0.122042
					CHANNELS 3 Zrotation Yrotation Xrotation
					End Site
					{
						OFFSET 0.000000 0.000000 0.000000
					}
				}
			}
		}
	}
	JOINT rhip
	{
		OFFSET -0.060310 -0.090513 -0.013543
		CHANNELS 3 Zrotation Yrotation Xrotation
		JOINT rknee
		{
			OFFSET -0.043257 -0.383688 -0.004843
			CHANNELS 3 Zrotation Yrotation Xrotation
			JOINT rankle
			{
				OFFSET 0.019056 -0.420046 -0.034562
				CHANNELS 3 Zrotation Yrotation Xrotation
				JOINT rtoe
				{
					OFFSET -0.034840 -0.062106 0.130323
					CHANNELS 3 Zrotation Yrotation Xrotation
					End Site
					{
						OFFSET 0.000000 0.000000 0.000000
					}
				}
			}
		}
	}
	JOINT lowerback
	{
		OFFSET 0.004439 0.124404 -0.038385
		CHANNELS 3 Zrotation Yrotation Xrotation
		JOINT upperback
		{
			OFFSET 0.004488 0.137956 0.026820
			CHANNELS 3 Zrotation Yrotation Xrotation
			JOINT chest
			{
				OFFSET -0.002265 0.056032 0.002855
				CHANNELS 3 Zrotation Yrotation Xrotation
				JOINT lowerneck
				{
					OFFSET -0.013390 0.211636 -0.033468
					CHANNELS 3 Zrotation Yrotation Xrotation
					JOINT upperneck
					{
						OFFSET 0.010113 0.088937 0.050410
						CHANNELS 3 Zrotation Yrotation Xrotation
						End Site
						{
							OFFSET 0.000000 0.000000 0.000000
						}
					}
				}
				JOINT lclavicle
				{
					OFFSET 0.071702 0.114000 -0.018898
					CHANNELS 3 Zrotation Yrotation Xrotation
					JOINT lshoulder
					{
						OFFSET 0.122921 0.045205 -0.019046
						CHANNELS 3 Zrotation Yrotation Xrotation
						JOINT lelbow
						{
							OFFSET 0.255332 -0.015649 -0.022946
							CHANNELS 3 Zrotation Yrotation Xrotation
							JOINT lwrist
							{
								OFFSET 0.265709 0.012698 -0.007375
								CHANNELS 3 Zrotation Yrotation Xrotation
								End Site
								{
									OFFSET 0.000000 0.000000 0.000000
								}
							}
						}
					}
				}
				JOINT rclavicle
				{
					OFFSET -0.082954 0.112472 -0.023707
					CHANNELS 3 Zrotation Yrotation Xrotation
					JOINT rshoulder
					{
						OFFSET -0.113228 0.046853 -0.008472
						CHANNELS 3 Zrotation Yrotation Xrotation
						JOINT relbow
						{
							OFFSET -0.260127 -0.014369 -0.031269
							CHANNELS 3 Zrotation Yrotation Xrotation
							JOINT rwrist
							{
								OFFSET -0.269108 0.006794 -0.006027
								CHANNELS 3 Zrotation Yrotation Xrotation
								End Site
								{
									OFFSET 0.000000 0.000000 0.000000
								}
							}
						}
					}
				}
			}
		}
	}
}
MOTION
Frames: 5
Frame Time: 0.033333
0.189531 -0.490813 0.993249 -4.801192 0.320952 90.630817 6.221383 -2.078741 -29.591013 -8.513114 -2.152124 15.384707 -8.585502 1.872923 6.509471 0.000000 -0.000000 0.000000 -1.717127 -10.015893 6.932696 7.044704 -9.006889 1.809460 1.253133 -5.243652 -13.285587 0.000000 -0.000000 0.000000 -0.158396 8.929215 16.849833 0.014481 -1.294353 -6.343168 1.365137 2.538507 -2.995593 0.385557 2.865562 -13.407956 4.606074 -4.352892 0.821076 -25.496568 1.754630 -2.030425 -48.014028 -3.743081 2.649850 18.328905 -22.935138 -6.466773 4.315168 -5.604526 -3.447851 21.284415 3.759315 -0.039179 51.687434 4.298464 11.580350 -5.932686 41.490096 7.440621 6.328147 3.877682 -17.851811 
0.186479 -0.484027 0.992331 -5.780480 0.550074 90.492775 6.915666 -1.298312 -29.484034 -8.629823 -2.066525 14.840673 -8.482109 1.996038 7.199161 0.000000 -0.000000 0.000000 -1.641558 -10.064127 6.858161 7.624955 -8.639678 1.283342 1.272677 -4.435910 -12.681386 0.000000 -0.000000 0.000000 -0.062397 8.839287 17.292644 0.035857 -1.257305 -6.754723 1.471993 2.500065 -3.014736 0.369512 3.642588 -13.853125 4.920333 -3.972928 2.099783 -25.486479 1.441610 -2.142497 -47.813094 -4.610555 2.516877 18.365757 -23.461258 -6.831601 5.019822 -5.853645 -3.254293 21.441734 3.922896 0.260557 51.438613 3.598184 11.483132 -4.964387 38.810565 8.579386 5.917733 3.764146 -17.238390 
0.183510 -0.477449 0.991346 -6.513029 0.748111 90.482248 7.617229 -0.817169 -29.568524 -8.697516 -1.880493 14.373257 -8.598886 1.995063 8.072633 0.000000 -0.000000 0.000000 -1.494981 -10.060298 6.784579 8.214434 -8.368016 0.516847 1.191191 -3.792355 -12.018313 0.000000 -0.000000 0.000000 -0.191518 8.664848 17.297770 0.205687 -1.293163 -6.702695 1.688444 2.434166 -2.979088 0.357923 3.967040 -13.496547 5.015833 -3.268034 1.895124 -25.490173 1.519664 -2.238984 -47.734340 -5.568550 2.563018 18.764482 -25.190107 -7.446201 4.365170 -5.706145 -4.264641 21.554843 3.973200 0.407911 51.400343 3.583997 11.440632 -4.705114 35.919402 9.069860 6.636100 3.407476 -15.435566 
0.180618 -0.471124 0.990483 -7.253988 0.886660 90.492251 8.242062 -0.361528 -29.558336 -8.731173 -1.712995 13.794635 -8.569803 1.967353 8.638320 0.000000 -0.000000 0.000000 -1.212419 -10.062059 6.715760 8.458728 -7.752748 -0.294301 1.097243 -3.396839 -11.373292 0.000000 -0.000000 0.000000 -0.399936 8.538468 17.374067 0.352228 -1.339290 -6.939052 1.856469 2.381782 -2.933091 0.380891 4.717107 -13.888906 5.239219 -2.790005 2.796213 -25.293582 1.380170 -2.259118 -48.036875 -6.437202 2.716769 19.331668 -26.562268 -7.836435 4.767718 -5.832075 -4.404324 21.866279 4.072563 0.607091 51.551673 3.569668 11.366403 -4.942158 33.343186 8.836091 6.467337 3.325954 -13.651812 
0.177818 -0.464647 0.989611 -8.038294 1.061478 90.595181 8.852695 0.315229 -29.645788 -8.697914 -1.535037 13.214272 -8.822944 1.924451 9.221023 0.000000 -0.000000 0.000000 -1.205095 -10.694387 6.133893 8.961113 -7.418884 -0.185039 1.236640 -2.277853 -10.933757 0.000000 -0.000000 0.000000 -0.496914 8.481755 17.440274 0.484221 -1.352943 -7.226893 1.953531 2.343068 -2.904299 0.419383 5.387500 -14.133401 5.343669 -2.681065 3.707739 -25.066429 1.379045 -2.415547 -48.199919 -7.304408 3.021871 19.214399 -27.864883 -7.552702 5.018830 -5.940230 -4.840332 22.140185 3.977876 0.571036 51.692184 4.014695 11.145205 -5.240508 30.650497 8.956566 6.779855 2.999031 -11.969747 
